<svg width="22" height="23" viewBox="0 0 22 23" fill="none" xmlns="http://www.w3.org/2000/svg">
<path d="M9.4531 0C9.97598 0.351896 10.3393 0.8754 10.8083 1.289C11.4183 1.94266 12.1547 2.46809 12.7226 3.16128C13.7821 4.23914 14.8798 5.28133 15.9471 6.35147C17.8036 8.12252 19.5652 9.99094 21.4678 11.7147C21.5569 11.8083 21.6342 11.9162 21.6851 12.0377C21.4736 12.3559 21.1505 12.5795 20.8871 12.8533C18.5821 15.1151 16.2839 17.3836 13.9809 19.6473C12.987 20.6433 11.9569 21.6025 10.9885 22.6216C10.8396 22.5888 10.683 22.5551 10.5743 22.4423C7.0531 18.9715 3.53292 15.4979 0 12.0387C1.46291 10.5655 2.96499 9.12807 4.43573 7.66265C5.01639 7.6424 5.59803 7.64626 6.17967 7.6559C6.0935 7.81208 5.99656 7.96345 5.86535 8.08781C5.07416 8.85234 4.29277 9.62651 3.5104 10.3997C2.9503 10.8769 2.44406 11.4091 1.90452 11.9076C1.9055 11.9886 1.90648 12.0686 1.90844 12.1505C2.0847 12.273 2.2492 12.4118 2.39608 12.568C5.11235 15.2568 7.85016 17.9245 10.5615 20.6172C10.6888 20.7879 10.9581 20.8602 11.103 20.6683C13.9123 17.9081 16.7167 15.1431 19.5231 12.3809C19.6318 12.2585 19.7943 12.1303 19.7356 11.9461C19.6651 11.8333 19.574 11.7369 19.4829 11.6424C16.1282 8.36355 12.8029 5.0538 9.44428 1.7778C9.47268 1.18584 9.46387 0.59292 9.4531 0Z" fill="#ffffff"/>
<path d="M9.52167 3.08459C10.2061 3.933 11.0208 4.66378 11.7895 5.43602C13.176 6.80214 14.5674 8.16345 15.954 9.52957C16.7804 10.3789 17.6695 11.1695 18.4685 12.0449C17.4531 12.9617 16.5111 13.9538 15.5241 14.8996C14.069 16.5212 12.3897 17.9297 10.9199 19.5378C10.5263 19.2775 10.2228 18.915 9.88886 18.5901C7.66317 16.446 5.49622 14.2411 3.26562 12.1047C3.27444 11.9263 3.44873 11.8212 3.55547 11.6959C4.62866 10.6961 5.62939 9.62598 6.69768 8.62236C7.04628 8.31192 7.32143 7.91086 7.72877 7.67369C8.26439 7.61681 8.80588 7.65441 9.34247 7.67272C9.1956 7.90314 8.99976 8.095 8.80882 8.28878C7.80025 9.28854 6.77406 10.271 5.77137 11.2755C5.51678 11.5465 5.14175 11.7653 5.09475 12.1654C5.31703 12.2753 5.50111 12.4421 5.67247 12.6176C7.09915 14.0386 8.54639 15.4404 9.97405 16.8615C10.2316 17.1122 10.4588 17.4004 10.7613 17.6019C10.9523 17.6627 11.0815 17.5075 11.2049 17.3937C12.7246 15.8704 14.2854 14.3867 15.8061 12.8644C16.091 12.5906 16.3623 12.2956 16.7109 12.0979C16.5983 11.9417 16.4778 11.7904 16.3427 11.6525C14.1738 9.54596 12.045 7.39988 9.8732 5.29623C9.70771 5.12944 9.50404 4.96265 9.47369 4.71584C9.4306 4.17306 9.4541 3.62545 9.52167 3.08459Z" fill="#ffffff"/>
<path d="M10.614 7.85322C10.7159 7.72596 10.9254 7.67004 11.0468 7.80405C12.3736 9.09979 13.6926 10.4042 15.0204 11.7C15.1614 11.8224 15.2231 11.9998 15.2476 12.1791C15.0165 12.3122 14.8167 12.4876 14.6307 12.6756C13.3626 13.8923 12.1435 15.1582 10.8579 16.3546C9.52811 15.1023 8.25321 13.793 6.93522 12.5281C6.77561 12.3459 6.39569 12.209 6.52102 11.9121C6.72567 11.6363 7.00181 11.4242 7.24073 11.1793C8.3619 10.0668 9.49874 8.9706 10.614 7.85322ZM10.5122 9.77852C9.87083 10.4293 9.204 11.0569 8.55578 11.7019C8.46863 11.8041 8.35602 11.8995 8.33057 12.0384C8.64195 12.4587 9.06692 12.7817 9.42824 13.1606C9.94525 13.6301 10.3418 14.222 10.9176 14.6298C11.6412 13.7573 12.5479 13.0468 13.2843 12.1868C13.5007 11.994 13.2461 11.7896 13.109 11.6479C12.4069 10.9807 11.746 10.2692 11.0263 9.61944C10.8451 9.45265 10.6395 9.64644 10.5122 9.77852Z" fill="#ffffff"/>
</svg>
