<svg width="33" height="33" viewBox="0 0 33 33" fill="none" xmlns="http://www.w3.org/2000/svg">
<path d="M4.70497 25.5173C4.67384 22.9121 4.72652 20.3069 4.59961 17.7041C5.19823 18.5134 4.98033 19.5479 5.01625 20.4817C4.97793 23.4173 5.09287 26.3601 4.95638 29.2934C4.49664 28.0818 4.74088 26.7768 4.70497 25.5173Z" fill="#3D3D3D"/>
<path d="M10.4136 12.0239C11.0984 12.0167 12.0562 11.7773 12.425 12.5507C12.9326 13.123 11.9628 13.3648 11.63 13.657C11.175 13.2188 10.5357 13.3241 9.96343 13.3193C8.45491 13.3457 6.9464 13.2882 5.44028 13.3481C6.11552 14.6339 6.7285 15.9533 7.39656 17.2439C7.51389 17.287 7.74855 17.3684 7.86349 17.4115C8.72789 17.809 9.69047 17.7036 10.6123 17.6941C10.6171 17.8353 10.6243 18.1203 10.6267 18.2639C9.77428 18.2807 8.80691 18.0341 8.08857 18.6303C7.59291 18.6614 7.09007 18.683 6.60159 18.5848C5.58873 16.7841 4.73868 14.8901 3.80005 13.0464C3.89104 13.0655 4.06823 13.1086 4.15682 13.1278C4.13527 12.9841 4.09697 12.6944 4.07542 12.5507C5.78029 12.1915 7.52826 12.4861 9.25228 12.4118C9.6761 12.4334 10.0736 12.273 10.4136 12.0239Z" fill="#4F4F4F"/>
<path d="M7.86353 17.4129C8.9171 17.2764 9.98503 17.31 11.0434 17.3674C11.0194 17.8008 11.0051 18.2342 10.9907 18.6676C10.0233 18.6461 9.05358 18.6628 8.08861 18.6317C8.80695 18.0355 9.77431 18.2821 10.6267 18.2654C10.6244 18.1217 10.6172 17.8368 10.6124 17.6955C9.69051 17.7051 8.72793 17.8104 7.86353 17.4129Z" fill="#474747"/>
<path d="M20.8227 0.281853C22.9107 -0.582554 25.5638 0.619476 26.1768 2.82C26.4785 4.39078 26.4737 6.30157 25.2094 7.47247C23.5931 9.1965 20.4755 9.00733 19.0987 7.08217C18.2319 5.99747 18.2175 4.52726 18.3995 3.21748C18.5815 1.88615 19.5967 0.772721 20.8227 0.281853ZM21.5626 1.46952C19.0963 2.09687 18.9526 6.12917 21.225 7.09175C22.7622 7.86038 24.8861 6.68708 24.9676 4.95109C25.0609 3.98611 25.0322 2.82958 24.2324 2.14955C23.5596 1.43599 22.4917 1.21091 21.5626 1.46952Z" fill="#4C4C4C"/>
<path d="M19.8 9.9687C21.1577 9.1426 22.8051 9.35811 24.3184 9.32458C25.8939 9.32937 27.618 9.16415 29.0116 10.0573C30.4602 10.9049 31.0445 12.6673 31.0014 14.2692C30.9726 16.0986 31.0588 17.9303 30.9559 19.7573C30.8122 21.1773 29.6796 22.2787 28.3315 22.6235C28.3531 25.7363 28.3219 28.8516 28.3483 31.9644C27.8933 31.9716 27.4408 31.9764 26.9882 31.9811C26.9739 26.2081 26.9882 20.435 26.981 14.6619C27.436 14.6667 27.8933 14.6762 28.3531 14.693C28.3339 16.884 28.3219 19.0749 28.3483 21.2635C28.99 20.8947 29.5719 20.3081 29.6269 19.5322C29.6964 17.9375 29.6245 16.338 29.6581 14.7409C29.7012 13.5365 29.5479 12.1261 28.5087 11.3455C27.3163 10.4189 25.7359 10.723 24.3399 10.6775C23.0038 10.7277 21.5312 10.4356 20.3435 11.2114C18.7919 12.2315 17.9898 14.001 16.6632 15.2461C15.4612 15.5742 14.1945 15.6556 12.9709 15.8998C13.038 16.3643 12.9087 17.2503 13.5696 17.2958C14.8362 17.3748 16.1101 17.3054 17.3816 17.3293C18.258 16.4577 19.1152 15.5622 20.0251 14.7217C20.5614 14.4799 21.0906 14.8846 20.9829 15.4616C21.0332 20.9737 20.9877 26.4882 21.0068 32.0003C20.5686 31.9955 20.1352 31.9835 19.7018 31.9764C19.9964 31.5573 20.0562 31.0473 20.0442 30.5516C20.0059 26.8785 20.0251 23.2054 20.037 19.5322C20.0275 18.7014 20.1376 17.8178 19.7377 17.054C19.7258 17.0276 19.7018 16.9726 19.6898 16.9438C19.1008 17.5161 18.5357 18.1147 17.9203 18.6631C16.4693 18.6487 15.0206 18.6702 13.572 18.6463C12.6285 18.6176 11.7953 17.8657 11.6707 16.9318C11.6133 16.2494 11.5534 15.5335 11.7713 14.8726C13.1218 14.2476 14.7524 14.5062 16.091 13.8813C17.2858 12.5476 18.1957 10.881 19.8 9.9687Z" fill="#4C4C4C"/>
<path d="M19.7378 17.0537C20.1377 17.8175 20.0276 18.7011 20.0371 19.532C20.0252 23.2051 20.006 26.8783 20.0443 30.5514C20.0563 31.047 19.9964 31.5571 19.7019 31.9761C19.6229 28.3102 19.6899 24.6418 19.666 20.9759C19.6947 19.6685 19.5989 18.3563 19.7378 17.0537Z" fill="#3D3D3D"/>
<path d="M3.80016 13.0473C3.54874 12.6713 3.71157 12.0416 4.22399 12.0344C6.28324 11.9745 8.34967 11.9985 10.4137 12.0248C10.0737 12.2739 9.67621 12.4343 9.25239 12.4127C7.52837 12.487 5.7804 12.1924 4.07553 12.5516C4.09708 12.6953 4.13538 12.985 4.15693 13.1287C4.06834 13.1095 3.89115 13.0664 3.80016 13.0473Z" fill="#3F3F3F"/>
<path d="M1.0871 10.4203C1.1757 9.94856 1.70009 10.018 2.06166 9.99165C5.57675 9.99405 9.09425 9.99884 12.6093 9.98926C12.9422 10.0132 13.3109 9.95094 13.627 10.0994C14.2304 10.7555 14.5872 11.5936 15.0541 12.3478C14.6614 12.5729 14.2711 12.8004 13.8808 13.0279C13.548 12.4628 13.263 11.8617 12.844 11.3565C9.34088 11.335 5.83536 11.335 2.33224 11.3613C2.15026 12.707 3.02903 13.8037 3.46722 15.0009C3.81681 15.9132 4.35079 16.7584 4.59982 17.7043C4.72672 20.3071 4.67404 22.9123 4.70517 25.5175C4.74109 26.7769 4.49685 28.0819 4.95659 29.2935C5.05237 29.7389 5.03082 30.1987 5.06195 30.6536C8.80452 30.5938 12.5519 30.6081 16.2968 30.644C16.3567 26.8632 16.292 23.0775 16.3232 19.2966C16.7566 19.3014 17.1948 19.3038 17.6354 19.311C17.6737 23.0535 17.6234 26.7937 17.6593 30.5363C17.6473 30.9098 17.6689 31.2929 17.5731 31.6593C17.4965 32.052 16.9577 31.9203 16.6776 31.9754C12.3938 31.9347 8.10772 32.0568 3.82879 31.9107C3.563 30.6704 3.72344 29.3941 3.68752 28.1394C3.65879 25.0386 3.7378 21.9329 3.6492 18.8369C2.97156 17.1057 2.16942 15.4175 1.40797 13.7199C0.854847 12.7142 0.99372 11.5169 1.0871 10.4203Z" fill="#4D4D4D"/>
<path d="M23.655 21.9731C24.1052 21.9707 24.5554 21.9707 25.0103 21.9707C25.0031 25.3038 25.0055 28.6369 25.0055 31.97C24.5554 31.9772 24.1076 31.9844 23.6598 31.9892C23.6622 28.6513 23.6718 25.311 23.655 21.9731Z" fill="#494949"/>
</svg>
