<svg width="350" height="325" viewBox="0 0 350 325" fill="none" xmlns="http://www.w3.org/2000/svg">
<path d="M214.288 0C313.369 99.6853 413.925 197.921 511 299.563C501.648 311.091 490.87 321.361 480.599 332.067C415.834 397.823 350.537 463.023 284.805 527.812C272.601 539.533 260.687 551.592 247.783 562.539C198.822 516.14 151.722 467.832 103.897 420.273C64.0957 380.109 24.0041 340.235 -15 299.298C16.4643 264.402 50.4177 231.85 83.2595 198.283C85.6519 196.011 87.7786 193.329 90.7268 191.758C104.695 191.202 118.663 191.807 132.631 191.541C96.5267 227.766 60.35 263.894 24.2216 300.095C89.4219 365.199 154.042 430.93 220.136 495.116C229.368 503.646 238.092 512.733 247.976 520.538C266.463 505.169 283.258 487.866 300.561 471.191C357.787 414.522 414.601 357.441 471.488 300.433C433.934 260.269 394.229 222.159 355.563 183.058C308.56 135.91 261.243 89.0522 214.167 41.9524C214.24 27.9602 214.24 13.9922 214.288 0Z" fill="white" fill-opacity="0.05"/>
<path d="M214.336 80.1831C274.292 138.641 333.064 198.331 392.271 257.538C406.046 271.651 420.135 285.45 433.475 299.95C372.89 363.362 310.107 424.647 248.169 486.778C185.989 424.502 123.448 362.613 61.3164 300.312C92.394 269.114 123.593 238.036 154.694 206.862C159.938 201.835 164.482 195.891 170.523 191.782C183.259 191.226 196.043 191.323 208.73 192.435C175.695 227.331 140.678 260.342 108.175 295.745C105.782 297.751 104.139 300.941 107.474 302.971C149.281 346.518 192.345 388.881 235.458 431.124C239.783 435.449 244.326 439.509 249.063 443.376C291.499 402.197 332.726 359.761 374.147 317.543C380.043 311.477 386.157 305.556 391.112 298.669C333.934 237.843 273.567 180.086 215.158 120.492C212.838 107.515 214.868 93.547 214.336 80.1831Z" fill="white" fill-opacity="0.05"/>
<path d="M157.884 282.551C187.584 252.174 216.874 221.338 247.855 192.266C284.418 226.655 320.063 262.106 354.137 299.008C320.063 335.668 284.974 371.434 248.846 406.064C221.828 381.439 196.212 355.339 170.402 329.433C161.026 319.452 150.9 310.124 142.418 299.37C146.985 293.256 152.664 288.085 157.884 282.551ZM247.855 237.912C247.855 237.912 222.553 262.493 211.871 273.513C207.763 277.283 203.945 281.342 200.489 285.717C195.825 290.55 191.306 295.552 187.343 300.99C207.352 321.192 226.613 342.314 248.096 360.922C269.508 341.999 289.155 321.072 308.85 300.385C295.97 284.194 281.059 269.767 266.439 255.171C264.312 253.237 247.855 237.912 247.855 237.912Z" fill="white" fill-opacity="0.05"/>
</svg>
