<svg width="30" height="31" viewBox="0 0 30 31" fill="none" xmlns="http://www.w3.org/2000/svg">
<path d="M4.75256 4.55532C7.55756 1.63579 11.6614 0.0036885 15.721 0.236845C20.0458 0.412558 24.1802 2.73061 26.6554 6.24486C29.2836 9.88075 29.9908 14.7838 28.4948 19.0043C27.8284 20.9979 26.6418 22.7753 25.2138 24.3061C25.2036 25.0528 25.2002 25.7996 25.1968 26.5464C25.9788 26.5565 26.771 26.5227 27.5496 26.6343C28.1888 27.1783 27.842 28.1684 27.944 28.9084C27.8726 29.4794 28.1242 30.5641 27.2538 30.5844C19.4372 30.6723 11.6138 30.581 3.79716 30.6283C3.25656 30.5405 2.49156 30.8074 2.15836 30.2397C2.00876 29.1517 2.01216 28.04 2.15496 26.9553C2.77036 26.2186 3.95016 26.6951 4.80356 26.5464C4.80016 25.7996 4.79676 25.0495 4.78996 24.2993C2.56636 21.988 1.07376 18.9671 0.794963 15.7671C0.373363 11.6886 1.86596 7.47822 4.75256 4.55532ZM7.32976 4.08562C3.88896 6.58615 1.83876 10.8506 2.10736 15.0879C2.20256 17.825 3.33136 20.4336 5.00756 22.5794C5.67396 21.8191 6.52396 21.2581 7.52016 21.0351C7.52016 17.3756 7.51676 13.716 7.52356 10.0598C8.65236 8.93799 9.79136 7.82289 10.9032 6.68414C10.9168 6.00832 10.8862 5.32575 10.995 4.65331C11.1922 4.11266 11.9912 4.12617 12.2054 4.64655C12.3108 5.32237 12.2836 6.00832 12.2972 6.68752C13.4158 7.82289 14.5514 8.93799 15.6802 10.0598C15.6836 12.8476 15.6802 15.6353 15.6802 18.4231C16.9892 18.3251 18.152 18.9029 19.0462 19.8186C20.226 19.6564 21.2596 20.2005 22.011 21.0689C23.0888 21.3798 24.0578 21.961 24.7956 22.8024C26.686 20.4978 27.8828 17.6256 27.9168 14.6284C27.6414 14.3648 27.4136 14.0674 27.2402 13.7363C27.4238 13.4153 27.6142 13.0976 27.8182 12.7834C27.6312 11.7359 27.5224 10.5566 26.5806 9.87737C26.6384 9.63408 26.7506 9.14411 26.8084 8.90082C26.2304 8.49871 25.6422 8.12025 25.0608 7.7249C25.1764 7.54243 25.411 7.18424 25.5266 7.00177C25.258 6.63683 24.986 6.26851 24.7174 5.90019C24.4012 6.05901 24.085 6.21783 23.7688 6.38002C23.5342 6.14687 23.2996 5.91033 23.0684 5.67379C23.2282 5.36292 23.3914 5.05204 23.5512 4.74117C23.184 4.4776 22.8168 4.21065 22.453 3.94708C22.2524 4.06873 21.8546 4.31202 21.654 4.43705C21.382 3.97411 21.1576 3.48753 20.9366 2.99756C19.5698 2.31498 18.0942 1.8926 16.588 1.64592C16.2038 1.88922 15.8162 2.12575 15.4218 2.35215C15.2926 2.14603 15.0308 1.7304 14.8982 1.52428C12.1986 1.63917 9.49896 2.45353 7.32976 4.08562ZM8.88016 10.6275C8.88356 15.0372 8.88016 19.4503 8.88016 23.86C10.6924 23.86 12.508 23.86 14.3202 23.86C14.3202 19.4469 14.3202 15.0372 14.3202 10.6242C13.4158 9.72194 12.508 8.81972 11.6036 7.92088C10.6924 8.8231 9.78456 9.72194 8.88016 10.6275ZM15.721 19.7409C15.6632 21.1128 15.6802 22.4881 15.6802 23.86C18.3968 23.8364 21.1134 23.9141 23.8266 23.8093C23.235 22.9443 22.3204 22.4577 21.2698 22.4138C20.9706 22.0353 20.7598 21.5623 20.3484 21.2852C19.7534 21.0216 19.121 21.3561 18.5294 21.4676C17.9888 20.3728 16.9688 19.6936 15.721 19.7409ZM5.98676 23.8127C6.50356 23.8364 7.01696 23.8567 7.53376 23.8735C7.51676 23.3599 7.49636 22.8497 7.47596 22.3361C6.81636 22.6537 6.30296 23.1572 5.98676 23.8127ZM6.16016 25.2117C6.16016 25.6611 6.16016 26.1139 6.16016 26.5633C12.0524 26.5633 17.948 26.5633 23.8402 26.5633C23.8402 26.1139 23.8402 25.6611 23.8402 25.2117C17.948 25.2117 12.0524 25.2117 6.16016 25.2117ZM3.44016 27.9149C3.44016 28.3643 3.44016 28.8171 3.44016 29.2666C11.148 29.2666 18.8524 29.2666 26.5602 29.2666C26.5602 28.8138 26.5602 28.3643 26.5602 27.9149C18.8524 27.9149 11.148 27.9149 3.44016 27.9149Z" fill="#555555"/>
</svg>
