<svg width="33" height="33" viewBox="0 0 33 33" fill="none" xmlns="http://www.w3.org/2000/svg">
<path d="M27.1346 24.6635C27.2006 23.3717 26.9413 22.0359 27.3499 20.7832C27.5774 22.1509 27.4404 23.5405 27.4722 24.918C27.4355 26.2661 27.5945 27.6337 27.3205 28.9647C26.9437 27.5603 27.1933 26.0948 27.1346 24.6635Z" fill="#393939"/>
<path d="M26.914 10.8735C27.7092 10.7145 27.5649 11.7763 27.396 12.2436C25.862 12.2681 24.3231 12.2999 22.7915 12.1996C24.098 11.4998 25.6712 12.0332 27.0902 11.8717C27.029 11.539 26.9703 11.2038 26.914 10.8735Z" fill="#474747"/>
<path d="M17.9429 11.4189C18.0187 11.4948 18.1729 11.644 18.2487 11.7199C18.4028 13.8509 18.2438 15.999 18.3392 18.1374L17.9355 18.1716C17.9747 15.9207 17.9722 13.6698 17.9429 11.4189Z" fill="#3D3D3D"/>
<path d="M14.8744 9.47432C16.0904 8.40271 18.2605 8.78438 18.9725 10.2597C18.8453 11.4732 19.1022 12.6843 19.0288 13.9027C19.0459 14.9327 18.8257 16.019 19.271 16.9952C19.2905 17.0539 19.3272 17.1689 19.3468 17.2276C21.3751 17.783 23.4009 18.3482 25.4022 19.0014C26.283 19.2608 27.0512 19.8945 27.3497 20.7826C26.9411 22.0353 27.2005 23.3711 27.1344 24.6629C27.1931 26.0942 26.9436 27.5597 27.3203 28.9641C26.9925 30.0479 26.4371 31.051 25.8303 32.0003H13.4798C11.8406 29.1451 10.1353 26.3266 8.51321 23.4616C8.03856 22.598 7.71805 21.5239 8.15599 20.582C8.68936 19.3733 10.4069 19.0333 11.4418 19.7966C12.3348 20.4865 13.0859 21.3404 13.8982 22.1233C13.8909 18.6467 13.8909 15.17 13.8958 11.6959C13.8615 10.8518 14.1894 9.99056 14.8744 9.47432ZM15.2585 11.6689C15.2071 15.7352 15.3221 19.8088 15.2022 23.8751C14.6518 23.8286 14.0793 23.8996 13.5459 23.765C12.5477 22.8255 11.6962 21.7221 10.5879 20.9074C10.1916 20.5599 9.59706 20.8144 9.35729 21.2181C9.18603 21.8738 9.56035 22.4952 9.86373 23.053C11.3464 25.5853 12.8021 28.1347 14.3141 30.6498C17.8764 30.618 21.4436 30.5984 25.0058 30.6596C25.5759 29.7372 26.1411 28.7243 26.1142 27.6062C26.1019 25.644 26.1313 23.6818 26.1019 21.7196C26.1435 21.0811 25.6664 20.5379 25.0768 20.3642C22.7256 19.5397 20.2888 18.9868 17.9351 18.172L18.3388 18.1378C18.2434 15.9995 18.4024 13.8513 18.2483 11.7203C18.1724 11.6445 18.0183 11.4952 17.9425 11.4194C17.8617 10.7588 17.2648 10.1936 16.587 10.2279C15.8237 10.2059 15.2194 10.9301 15.2585 11.6689Z" fill="#4D4D4D"/>
<path d="M22.7137 10.8863C24.1132 10.9058 25.5151 10.9327 26.9145 10.874C26.9708 11.2043 27.0295 11.5395 27.0907 11.8722C25.6717 12.0337 24.0985 11.5004 22.792 12.2001L22.6746 12.2661C22.6941 11.8037 22.7039 11.3438 22.7137 10.8863Z" fill="#4D4D4D"/>
<path d="M20.2473 6.30792C21.3483 5.17024 22.4468 4.02279 23.6139 2.95117C23.9637 3.23987 24.2769 3.57506 24.6047 3.89556C23.4328 5.02345 22.3367 6.23452 21.1232 7.31837C20.8198 6.98808 20.5018 6.67247 20.2473 6.30792Z" fill="#4B4B4B"/>
<path d="M7.94092 3.87157C8.26632 3.55595 8.58193 3.2281 8.95137 2.96387C10.1233 4.0575 11.1998 5.249 12.3791 6.33774C12.0366 6.67048 11.6891 6.99833 11.3344 7.31394C10.2261 6.14446 9.06881 5.02148 7.94092 3.87157Z" fill="#4E4E4E"/>
<path d="M5.6804 10.9712C7.04805 10.8416 8.4255 10.9394 9.79805 10.9027C9.80295 11.3505 9.80784 11.8006 9.81518 12.2532C8.23467 12.241 6.65416 12.2851 5.07609 12.2312C5.05652 12.1016 5.01982 11.8471 5.00024 11.7174C6.5147 11.923 8.04873 11.923 9.57297 11.8349C9.37479 11.6441 9.29405 11.2697 8.98333 11.2452C7.8848 11.118 6.74712 11.3676 5.6804 10.9712Z" fill="#3C3C3C"/>
<path d="M19.029 13.9018C19.1024 12.6834 18.8455 11.4723 18.9727 10.2588C19.2443 10.7775 19.3275 11.3622 19.3153 11.9445C19.3006 13.6278 19.3275 15.311 19.2712 16.9943C18.8259 16.0181 19.0461 14.9318 19.029 13.9018Z" fill="#404040"/>
<path d="M5.0685 10.8193C5.22263 10.8585 5.52846 10.9343 5.68015 10.971C6.74688 11.3674 7.88455 11.1178 8.98308 11.245C9.2938 11.2695 9.37455 11.6439 9.57272 11.8347C8.04848 11.9228 6.51445 11.9228 5 11.7172C5.01713 11.4922 5.05137 11.0444 5.0685 10.8193Z" fill="#515151"/>
<path d="M15.9143 0.000961618C16.3694 -0.001485 16.8293 0.000951464 17.2893 0.0058447C17.2869 1.60104 17.2991 3.19623 17.282 4.79142C16.822 4.78653 16.3645 4.78409 15.9119 4.78409C15.9094 3.1889 15.9045 1.59371 15.9143 0.000961618Z" fill="#454545"/>
</svg>
