<svg width="129" height="122" viewBox="0 0 129 122" fill="none" xmlns="http://www.w3.org/2000/svg">
<path d="M104.18 32.479C99.8232 10.6183 78.5698 -3.5707 56.709 0.786291C40.7199 3.97308 28.2178 16.4673 25.0212 32.4544C9.52122 34.2407 -1.59713 48.2536 0.188181 63.7545C1.83177 78.0203 13.9146 88.7833 28.2749 88.7735H48.4546C50.6838 88.7735 52.4908 86.9665 52.4908 84.7374C52.4908 82.5082 50.6838 80.7012 48.4546 80.7012H28.2749C17.129 80.6353 8.14828 71.5473 8.21323 60.4024C8.27917 49.2565 17.3672 40.2748 28.5131 40.3407C30.57 40.3407 32.2982 38.7936 32.5246 36.7484C34.5737 19.0351 50.5952 6.33612 68.3096 8.38519C83.2023 10.1075 94.9505 21.8557 96.6729 36.7484C97.0114 38.83 98.8145 40.3545 100.923 40.3407C112.068 40.3407 121.103 49.3756 121.103 60.5215C121.103 71.6664 112.068 80.7012 100.923 80.7012H80.7428C78.5137 80.7012 76.7067 82.5082 76.7067 84.7374C76.7067 86.9665 78.5137 88.7735 80.7428 88.7735H100.924C116.526 88.6761 129.096 75.9486 128.999 60.3463C128.911 46.1376 118.284 34.2053 104.18 32.479Z" fill="#F98537"/>
<path d="M78.8699 97.0476L68.6383 107.282V56.4854C68.6383 54.2562 66.8313 52.4492 64.6031 52.4492C62.3739 52.4492 60.567 54.2562 60.567 56.4854V107.282L50.3354 97.0476C48.7872 95.4434 46.2313 95.3991 44.6281 96.9482C43.0248 98.4963 42.9805 101.051 44.5287 102.655C44.5621 102.689 44.5946 102.721 44.6281 102.754L61.745 119.875C62.119 120.248 62.5619 120.544 63.0491 120.747C64.0421 121.167 65.1631 121.167 66.1571 120.747C66.6443 120.544 67.0872 120.248 67.4602 119.875L84.5772 102.754C86.1804 101.206 86.2247 98.6508 84.6766 97.0476C83.1275 95.4444 80.5725 95.4001 78.9693 96.9482C78.9358 96.9807 78.9024 97.0132 78.8699 97.0476Z" fill="#F98537"/>
</svg>
