<svg width="124" height="140" viewBox="0 0 124 140" fill="none" xmlns="http://www.w3.org/2000/svg">
<path d="M111.344 28.0934C110.288 28.0934 109.238 27.7201 108.398 26.9501C95.5236 15.2134 79.0036 8.75002 61.8769 8.75002C44.7502 8.75002 28.2302 15.2134 15.356 26.9559C13.5651 28.5834 10.8001 28.4492 9.17261 26.6701C7.54511 24.885 7.67344 22.1142 9.45844 20.4867C23.9543 7.27418 42.5685 0 61.8769 0C81.1853 0 99.7995 7.27418 114.295 20.4867C116.08 22.1142 116.209 24.8792 114.581 26.6701C113.718 27.6151 112.534 28.0934 111.344 28.0934Z" fill="#F98537"/>
<path d="M118.751 56.6828C117.346 56.6828 115.957 56.0062 115.117 54.7462C102.972 36.6628 83.0689 25.8653 61.8764 25.8653C40.6838 25.8653 20.7804 36.6628 8.63541 54.7462C7.28791 56.7587 4.56374 57.2953 2.5629 55.942C0.556231 54.5945 0.0195634 51.8762 1.36707 49.8695C15.1396 29.3653 37.7613 17.1211 61.8764 17.1211C85.9914 17.1211 108.613 29.3653 122.386 49.8753C123.733 51.882 123.202 54.6003 121.19 55.9478C120.443 56.4437 119.597 56.6828 118.751 56.6828Z" fill="#F98537"/>
<path d="M48.0542 140C46.9283 140 45.8025 139.568 44.945 138.705C43.9883 137.742 21.5708 114.858 21.5708 92.8257C21.5708 69.959 39.6483 51.3564 61.8734 51.3564C84.0984 51.3564 102.176 69.959 102.176 92.8257C102.176 95.2407 100.216 97.2007 97.801 97.2007C95.386 97.2007 93.4259 95.2407 93.4259 92.8257C93.4259 74.7832 79.2743 60.1065 61.8734 60.1065C44.4725 60.1065 30.3208 74.7832 30.3208 92.8257C30.3208 111.3 50.9534 132.335 51.1634 132.545C52.8667 134.26 52.855 137.031 51.1342 138.734C50.2825 139.58 49.1684 140 48.0542 140Z" fill="#F98537"/>
<path d="M75.6954 140C65.172 140 40.777 119.98 38.4144 97.6846C37.5803 89.8038 40.0886 81.7421 45.117 76.1187C49.492 71.2304 55.4011 68.5179 61.7537 68.4829H61.8762C68.0712 68.4829 73.9278 70.9154 78.3845 75.3429C83.0395 79.9687 85.6004 86.1812 85.6004 92.8313V95.6838C85.6004 102.713 91.072 108.43 97.8037 108.43C104.535 108.43 110.013 102.713 110.013 95.6838V94.6863C110.013 67.4446 90.2787 44.782 65.0845 43.102C51.9478 42.2095 39.3478 46.7479 29.6236 55.8362C19.5319 65.2746 13.7452 78.7612 13.7452 92.8313C13.7452 104.405 17.6652 115.68 24.7819 124.582C26.2869 126.472 25.9836 129.22 24.0936 130.73C22.2094 132.241 19.4561 131.932 17.9394 130.042C9.59189 119.595 4.98938 106.376 4.98938 92.8254C4.98938 76.3404 11.7911 60.5262 23.6386 49.4429C35.1478 38.6745 50.0695 33.3195 65.6562 34.3637C95.4296 36.3528 118.757 62.8479 118.757 94.6804V95.6779C118.757 107.531 109.354 117.174 97.7979 117.174C86.242 117.174 76.8445 107.531 76.8445 95.6779V92.8254C76.8445 88.5204 75.1995 84.5187 72.2128 81.5437C69.4128 78.7554 65.7437 77.2271 61.8762 77.2271C61.847 77.2271 61.8237 77.2271 61.7945 77.2271C56.8653 77.2504 53.5461 79.8112 51.6328 81.9521C48.2203 85.7612 46.5286 91.3029 47.1061 96.7629C49.037 114.951 69.9378 131.255 75.6895 131.255C78.1045 131.255 80.0645 133.215 80.0645 135.63C80.0645 138.045 78.1104 140 75.6954 140Z" fill="#F98537"/>
<path d="M91.9271 131.444C76.2704 131.444 57.1545 112.31 57.1545 89.9746C57.1545 87.5596 59.1145 85.5996 61.5295 85.5996C63.9445 85.5996 65.9045 87.5596 65.9045 89.9746C65.9045 107.288 80.4587 122.694 91.9271 122.694C94.3421 122.694 96.3021 124.654 96.3021 127.069C96.3021 129.484 94.3421 131.444 91.9271 131.444Z" fill="#F98537"/>
</svg>
