<svg width="22" height="23" viewBox="0 0 22 23" fill="none" xmlns="http://www.w3.org/2000/svg">
<path d="M9.4531 0C9.97598 0.357404 10.3393 0.889104 10.8083 1.30918C11.4183 1.97307 12.1547 2.50673 12.7226 3.21076C13.7821 4.3055 14.8798 5.364 15.9471 6.4509C17.8036 8.24967 19.5652 10.1473 21.4678 11.8981C21.5569 11.9931 21.6342 12.1028 21.6851 12.2262C21.4736 12.5493 21.1505 12.7765 20.8871 13.0546C18.5821 15.3517 16.2839 17.6558 13.9809 19.9549C12.987 20.9664 11.9569 21.9407 10.9885 22.9757C10.8396 22.9424 10.683 22.9081 10.5743 22.7936C7.0531 19.2685 3.53292 15.7405 0 12.2271C1.46291 10.7309 2.96499 9.27097 4.43573 7.7826C5.01639 7.76204 5.59803 7.76595 6.17967 7.77575C6.0935 7.93437 5.99656 8.08811 5.86535 8.21442C5.07416 8.99092 4.29277 9.77721 3.5104 10.5625C2.9503 11.0472 2.44406 11.5877 1.90452 12.094C1.9055 12.1762 1.90648 12.2575 1.90844 12.3407C2.0847 12.4651 2.2492 12.6061 2.39608 12.7647C5.11235 15.4957 7.85016 18.2051 10.5615 20.94C10.6888 21.1133 10.9581 21.1867 11.103 20.9919C13.9123 18.1884 16.7167 15.3801 19.5231 12.5748C19.6318 12.4504 19.7943 12.3202 19.7356 12.1331C19.6651 12.0186 19.574 11.9207 19.4829 11.8247C16.1282 8.49447 12.8029 5.13291 9.44429 1.80563C9.47268 1.2044 9.46387 0.602202 9.4531 0Z" fill="#EB7A26"/>
<path d="M9.5199 3.13232C10.2044 3.99401 11.019 4.73624 11.7877 5.52057C13.1742 6.90808 14.5657 8.2907 15.9522 9.67821C16.7786 10.5409 17.6677 11.3438 18.4668 12.2329C17.4513 13.1641 16.5094 14.1717 15.5223 15.1323C14.0673 16.7793 12.3879 18.2099 10.9182 19.8432C10.5245 19.5788 10.221 19.2106 9.88709 18.8806C7.6614 16.7029 5.49445 14.4635 3.26385 12.2936C3.27267 12.1125 3.44696 12.0057 3.5537 11.8784C4.62689 10.863 5.62762 9.77613 6.69591 8.75679C7.04451 8.44149 7.31966 8.03415 7.727 7.79327C8.26262 7.7355 8.80411 7.77368 9.34071 7.79229C9.19383 8.02631 8.99799 8.22117 8.80705 8.41799C7.79848 9.43341 6.77229 10.4312 5.7696 11.4515C5.51501 11.7267 5.13998 11.9489 5.09298 12.3553C5.31526 12.4669 5.49935 12.6363 5.6707 12.8145C7.09738 14.2579 8.54462 15.6816 9.97228 17.1249C10.2298 17.3795 10.457 17.6723 10.7596 17.877C10.9505 17.9387 11.0797 17.781 11.2031 17.6655C12.7228 16.1183 14.2837 14.6114 15.8043 13.0652C16.0893 12.7871 16.3605 12.4875 16.7091 12.2868C16.5965 12.1281 16.4761 11.9744 16.3409 11.8344C14.172 9.69485 12.0433 7.51518 9.87143 5.37859C9.70594 5.20919 9.50227 5.03978 9.47192 4.78911C9.42883 4.23783 9.45233 3.68165 9.5199 3.13232Z" fill="#EB7A26"/>
<path d="M10.6157 7.97531C10.7176 7.84606 10.9271 7.78927 11.0485 7.92537C12.3754 9.24141 13.6943 10.5662 15.0221 11.8823C15.1631 12.0066 15.2248 12.1868 15.2493 12.3689C15.0182 12.5041 14.8184 12.6823 14.6324 12.8732C13.3643 14.109 12.1452 15.3946 10.8596 16.6098C9.52982 15.3378 8.25492 14.0081 6.93693 12.7234C6.77732 12.5383 6.3974 12.3993 6.52273 12.0977C6.72738 11.8177 7.00351 11.6022 7.24244 11.3535C8.36361 10.2235 9.50045 9.11019 10.6157 7.97531ZM10.5139 9.93076C9.87254 10.5917 9.20571 11.2292 8.55749 11.8842C8.47034 11.988 8.35773 12.085 8.33228 12.226C8.64366 12.6529 9.06863 12.9809 9.42995 13.3658C9.94696 13.8426 10.3435 14.4438 10.9193 14.858C11.6429 13.9719 12.5496 13.2502 13.286 12.3768C13.5024 12.1809 13.2478 11.9733 13.1107 11.8294C12.4086 11.1518 11.7477 10.4292 11.028 9.76919C10.8468 9.59979 10.6412 9.79661 10.5139 9.93076Z" fill="#EB7A26"/>
</svg>
