<svg width="26" height="32" viewBox="0 0 26 32" fill="none" xmlns="http://www.w3.org/2000/svg">
<path d="M10.9456 1.11373C13.4091 -0.37845 17.0155 -0.504074 19.2063 1.55495C19.623 1.84297 19.7547 2.4527 19.3748 2.83264C18.3514 4.21452 17.3188 5.5964 16.2709 6.96295C16.2617 7.54818 16.2556 8.13647 16.2525 8.72477C17.7539 10.0208 19.2675 11.2955 20.7842 12.5762C22.5338 14.0194 23.551 16.2715 23.5572 18.5327C23.5786 20.2241 23.5725 21.9185 23.4867 23.6098C24.5039 25.3532 26.0819 27.1855 25.6621 29.3395C24.4641 30.798 22.3836 30.8072 20.6708 31.1167C16.0656 31.4016 11.3286 31.9777 6.81838 30.6693C4.94933 31.1075 2.96692 31.8888 1.04884 31.2362C0.233808 30.9757 -0.0174554 30.0014 0.000928714 29.2384C0.187834 26.6983 1.7934 24.4616 1.71986 21.8817C1.75357 19.8717 1.45942 17.7391 2.4062 15.8793C3.31928 14.1144 4.01175 12.1197 5.58973 10.8144C6.45991 10.03 7.51699 9.48771 8.38105 8.70332C8.83146 6.64736 7.35153 4.91312 6.69277 3.07777C6.54263 2.47109 5.72454 1.66525 6.48748 1.21484C7.97047 1.15969 9.53006 1.8062 10.9456 1.11373ZM13.2743 1.32515C12.3091 1.55801 11.5309 2.26581 10.5565 2.45577C9.60359 2.58446 8.64149 2.5048 7.68858 2.48335C8.26461 3.69364 8.70276 4.97746 9.36766 6.14792C11.393 6.27661 13.4306 6.17244 15.462 6.19082C16.4088 4.8641 17.426 3.58946 18.3698 2.25967C16.9327 1.12292 15.0085 0.997298 13.2743 1.32515ZM9.51474 7.33676C9.51168 7.62478 9.51167 8.20082 9.51167 8.4919C11.396 8.48271 13.2865 8.4919 15.174 8.48271C15.174 8.19775 15.174 7.62784 15.174 7.34289C13.2865 7.3245 11.3991 7.33676 9.51474 7.33676ZM9.34009 9.62866C8.29832 10.0668 7.44039 10.8389 6.5365 11.4977C4.9524 12.7019 4.3396 14.6628 3.44491 16.3542C2.07835 19.1486 3.44797 22.3934 2.27445 25.2307C1.74744 26.7872 1.11318 28.3468 1.10706 30.0167C2.47668 30.5927 3.95352 30.2158 5.34459 29.937C4.47134 29.3303 3.29475 28.7574 3.31314 27.5195C4.44376 27.4184 5.03513 28.5306 5.96966 28.9504C9.23591 30.752 13.0935 30.2771 16.6754 30.2679C19.3349 30.0963 22.0834 30.081 24.5775 29.0178C24.7092 27.5011 23.7196 26.251 23.0731 24.9702C22.6134 25.9875 22.1293 27.0293 21.2316 27.7401C21.109 27.5655 20.8639 27.21 20.7413 27.0354C21.4093 25.58 22.4051 24.1828 22.3775 22.5037C22.3622 20.5734 22.5828 18.5971 22.1722 16.7004C21.3388 13.7099 18.3575 12.2944 16.3046 10.2507C15.5447 9.36515 14.3222 9.58882 13.2927 9.57657C11.9721 9.61333 10.6515 9.5061 9.34009 9.62866Z" fill="#555555"/>
<path d="M16.0155 18.5736H17.352V19.5515H16.0155V20.4743H17.352V21.4522H16.0155V24.4714H14.4501L12.5258 21.4522H10.4283V24.4714H8.86902V21.4522H7.56348V20.4743H8.86902V19.5515H7.56348V18.5736H8.86902V15.5728H10.4283L12.3402 18.5736H14.4625V15.5728H16.0155V18.5736ZM13.5467 20.4743H14.4625V19.5515H12.9589L13.5467 20.4743ZM10.4283 20.4743H11.9009L11.3131 19.5515H10.4283V20.4743ZM14.4625 21.9106V21.4522H14.1717L14.4625 21.9106ZM10.4283 18.5736H10.6943L10.4283 18.158V18.5736Z" fill="#555555"/>
</svg>
