<svg width="35" height="34" viewBox="0 0 35 34" fill="none" xmlns="http://www.w3.org/2000/svg">
<path d="M11.0924 2.62877C12.8848 0.761188 15.5758 -0.129461 18.1418 0.0151748C20.5775 0.0735367 22.8983 1.22047 24.6013 2.91804C24.9817 3.33926 25.6838 3.74017 25.4592 4.41006C25.4132 4.73739 24.9919 4.76531 24.7494 4.89218C23.7332 3.9381 22.7936 2.85206 21.5171 2.23292C18.4941 0.578491 14.4933 1.13672 11.9912 3.47627C12.5503 3.50672 13.112 3.54225 13.6711 3.61077C13.6865 3.94317 13.7018 4.27558 13.712 4.61053C12.4456 4.92264 11.072 4.93278 9.80819 4.60037C9.80053 3.46866 9.72394 2.33189 9.82607 1.20525C9.87713 0.695217 10.4924 0.888061 10.8422 0.804324C11.0184 1.39555 11.0669 2.01216 11.0924 2.62877Z" fill="#444444"/>
<path d="M6.75201 8.12635C10.3826 6.50237 14.9247 7.44884 17.6336 10.3416C19.5 8.47652 22.0915 7.24585 24.7723 7.35243C27.6702 7.2966 30.4965 8.74549 32.2761 10.9911C33.9204 13.1049 34.6735 15.9215 34.1629 18.5604C33.4735 22.8031 29.6029 26.2134 25.2906 26.4291C22.4591 26.6093 19.569 25.4776 17.6592 23.3842C15.5324 25.6628 12.295 26.7844 9.19795 26.3733C6.9869 25.9724 4.87032 24.9066 3.39203 23.1989C1.51034 21.1081 0.629497 18.1468 1.10949 15.3759C1.58183 12.2142 3.78778 9.37225 6.75201 8.12635ZM3.81586 12.0924C2.6797 13.625 2.20225 15.5586 2.25587 17.4465C2.47033 19.3343 3.19289 21.2019 4.5665 22.562C6.61925 24.8077 9.99199 25.7212 12.9077 24.8356C14.4115 24.4397 15.683 23.5136 16.7936 22.4631C16.2319 21.4328 15.6345 20.4001 15.3639 19.2481C14.7792 16.802 15.0907 14.0945 16.4694 11.9554C16.5868 11.7169 16.9188 11.3769 16.6098 11.1434C15.0677 9.6057 12.9332 8.611 10.7324 8.611C8.04392 8.5501 5.34266 9.88228 3.81586 12.0924ZM23.1332 8.74803C20.9681 9.17179 18.9741 10.4634 17.7766 12.3157C16.26 14.5132 15.992 17.4668 16.9673 19.9332C18.2668 23.2877 21.9383 25.5791 25.5536 25.1147C29.3246 24.7925 32.557 21.6181 32.9731 17.8855C33.3255 15.2516 32.2506 12.4857 30.2565 10.7247C28.3544 9.02461 25.6506 8.24561 23.1332 8.74803Z" fill="#444444"/>
<path d="M12.9127 15.048H14.2023V15.9763H12.9127V16.8524H14.2023V17.7807H12.9127V20.6469H11.4024L9.5457 17.7807H7.52189V20.6469H6.01747V17.7807H4.75781V16.8524H6.01747V15.9763H4.75781V15.048H6.01747V12.1992H7.52189L9.36661 15.048H11.4143V12.1992H12.9127V15.048ZM10.5307 16.8524H11.4143V15.9763H9.9636L10.5307 16.8524ZM7.52189 16.8524H8.94274L8.3756 15.9763H7.52189V16.8524ZM11.4143 18.2159V17.7807H11.1337L11.4143 18.2159ZM7.52189 15.048H7.7786L7.52189 14.6535V15.048Z" fill="#444444"/>
<path d="M24.1414 11.262C24.458 11.2265 24.7772 11.1986 25.0989 11.1758C25.1729 11.3306 25.3236 11.6376 25.4002 11.7898C25.3925 11.9522 25.3823 12.277 25.3772 12.4369C26.7533 12.7236 28.0146 14.0634 27.4401 15.5225C27.2282 15.5098 26.807 15.4819 26.595 15.4666C26.1687 15.0683 26.2682 14.3019 25.7014 14.0279C24.8257 13.4646 23.6487 13.7995 23.0615 14.6115C23.1355 15.7229 24.2461 15.9894 25.1602 16.1137C26.4623 16.2989 27.8716 17.2632 27.8052 18.707C27.8793 20.0239 26.6997 21.0618 25.4589 21.2368C25.3899 21.7139 25.2878 22.1884 25.104 22.6375C24.167 22.838 23.9755 21.9778 23.904 21.28C22.7091 20.9831 21.5142 20.0112 21.5755 18.6867C21.5398 18.2908 22.0095 17.9457 22.3849 18.0701C22.824 18.1005 22.8317 18.6765 23.0002 18.981C23.4904 20.5949 26.6997 20.2422 26.447 18.4203C25.9746 17.3774 24.6853 17.4915 23.7636 17.1743C22.6427 16.9028 21.6495 15.8295 21.8104 14.6343C21.887 13.462 23.0129 12.7312 24.0393 12.4141C24.0674 12.0284 24.1006 11.6401 24.1414 11.262Z" fill="#444444"/>
<path d="M9.90208 29.0097C10.1089 29.0123 10.5251 29.0199 10.7319 29.025C11.9599 30.4434 13.5097 31.669 15.3557 32.1663C18.085 33.0012 21.2024 32.2247 23.2858 30.3064C22.6961 30.2734 22.1012 30.2455 21.5344 30.0679C21.5701 29.7202 21.6109 29.3777 21.6595 29.0376C22.8952 28.9539 24.1386 28.9691 25.3794 29.0072C25.6424 30.2328 25.4688 31.4889 25.4662 32.7297C25.2824 32.8159 24.9173 32.9936 24.7335 33.0798C24.1641 32.6612 24.2228 31.9456 24.1948 31.3239C22.2824 32.8718 19.8876 33.8842 17.388 33.7827C14.4187 33.7345 11.6434 32.1765 9.80762 29.9029C9.8306 29.6796 9.8791 29.233 9.90208 29.0097Z" fill="#444444"/>
</svg>
