<svg width="936" height="995" viewBox="0 0 936 995" fill="none" xmlns="http://www.w3.org/2000/svg">
<path d="M409.63 1.2071L935.224 526.801L935.293 526.87L468.296 993.867L0.707121 526.278L189.748 337.237H270.532L82.0134 525.756L81.6598 526.109L82.0135 526.463L82.3515 526.801L468.111 912.518L468.576 912.983L468.93 913.337L469.283 912.983L855.297 526.97L855.65 526.616L855.297 526.263L855.128 526.094L409.63 80.5963V1.2071Z" stroke="#EE7E01"/>
<path d="M509.442 816.174L468.464 857.11L428.162 816.808L137.632 526.278L326.674 337.237H407.458L218.939 525.756L218.585 526.109L218.939 526.463L219.277 526.801L468.745 776.226L469.098 776.58L469.452 776.226L718.708 526.97L719.061 526.616L718.708 526.263L409.46 217.015V137.626L798.704 526.87L509.442 816.174Z" stroke="#EE7E01"/>
<path d="M662.597 526.801L662.597 526.801L662.666 526.87L508.725 680.558L508.724 680.558L467.831 721.493L427.529 681.192L272.616 526.278L427.445 371.576L427.445 371.576L467.493 331.527L508.217 372.251L508.217 372.252L662.597 526.801ZM468.196 640.906L468.551 641.261L468.904 640.905L582.375 526.758L582.727 526.404L582.374 526.051L468.269 411.946L467.916 411.593L467.562 411.946L353.753 525.756L353.399 526.109L353.753 526.463L354.091 526.801L468.196 640.906Z" stroke="#EE7E01"/>
</svg>
