<svg width="621" height="991" viewBox="0 0 621 991" fill="none" xmlns="http://www.w3.org/2000/svg">
<g opacity="0.1">
<path d="M97.9268 0C272.474 175.611 449.617 348.668 620.631 527.727C604.155 548.034 585.168 566.128 567.075 584.987C452.981 700.827 337.95 815.687 222.153 929.823C200.654 950.471 179.666 971.715 156.932 991C70.6805 909.261 -12.2931 824.159 -96.5438 740.376C-166.661 669.621 -237.288 599.377 -306 527.259C-250.571 465.784 -190.757 408.439 -132.901 349.306C-128.686 345.305 -124.94 340.579 -119.746 337.812C-95.139 336.833 -70.5321 337.897 -45.9253 337.429C-109.528 401.245 -173.259 464.89 -236.905 528.664C-122.045 643.354 -8.20612 759.151 108.229 872.223C124.492 887.251 139.861 903.258 157.273 917.009C189.841 889.933 219.428 859.451 249.91 830.076C350.722 730.244 450.809 629.688 551.025 529.26C484.867 458.505 414.921 391.368 346.805 322.486C264.002 239.427 180.645 156.879 97.714 73.9057C97.8417 49.2563 97.8417 24.6494 97.9268 0Z" fill="#EE7E01"/>
<path d="M98.0136 141.256C203.636 244.238 307.172 349.392 411.474 453.695C435.74 478.557 460.56 502.866 484.06 528.409C377.331 640.119 266.728 748.083 157.615 857.536C48.0762 747.827 -62.1011 638.799 -171.555 529.048C-116.807 474.087 -61.8457 419.339 -7.05501 364.42C2.1832 355.565 10.1868 345.092 20.8299 337.855C43.2655 336.876 65.7863 337.046 88.1368 339.005C29.9404 400.479 -31.747 458.633 -89.0069 521.002C-93.2215 524.535 -96.1164 530.155 -90.2414 533.731C-16.5912 610.446 59.2728 685.076 135.222 759.492C142.842 767.112 150.846 774.265 159.19 781.076C233.947 708.533 306.576 633.776 379.545 559.402C389.932 548.716 400.703 538.286 409.431 526.153C308.704 418.998 202.359 317.25 99.4611 212.267C95.3741 189.405 98.9502 164.798 98.0136 141.256Z" fill="#EE7E01"/>
<path d="M-1.4412 497.757C50.8803 444.244 102.478 389.922 157.056 338.707C221.468 399.288 284.262 461.741 344.289 526.749C284.262 591.332 222.447 654.339 158.801 715.345C111.205 671.964 66.0786 625.986 20.6113 580.348C4.09322 562.766 -13.7446 546.333 -28.6875 527.388C-20.6413 516.617 -10.6368 507.507 -1.4412 497.757ZM157.056 419.119C157.056 419.119 112.483 462.422 93.6655 481.835C86.4282 488.477 79.7018 495.629 73.614 503.334C65.3975 511.849 57.4364 520.661 50.4546 530.24C85.7045 565.831 119.635 603.039 157.482 635.82C195.201 602.486 229.812 565.618 264.509 529.176C241.817 500.652 215.55 475.237 189.794 449.523C186.048 446.117 157.056 419.119 157.056 419.119Z" fill="#EE7E01"/>
</g>
</svg>
