<svg width="35" height="32" viewBox="0 0 35 32" fill="none" xmlns="http://www.w3.org/2000/svg">
<path d="M14.005 0.383241C17.2947 0.118918 20.7361 0.158416 23.8167 1.48611C24.8173 1.95095 25.9816 2.71354 25.8967 3.98047C25.8391 9.11806 25.8633 14.2465 25.8451 19.3841C28.577 19.0044 31.5969 18.9436 34.0438 20.411C35.3082 21.1858 34.9383 22.8021 34.9807 24.0478C34.9049 25.661 35.1293 27.3017 34.8443 28.8967C34.0378 30.3277 32.2337 30.6589 30.751 30.9354C28.2768 31.1936 25.5783 31.1632 23.3801 29.8568C22.5281 29.395 22.3067 28.444 22.3613 27.5447C19.2019 28.4137 15.8515 28.4623 12.6345 27.8911C11.9856 29.3525 10.3331 29.8902 8.88078 30.1454C6.59764 30.51 4.17806 30.4705 1.99195 29.6684C1.01563 29.313 -0.0910698 28.5747 0.00595595 27.3898C0.0150521 23.0269 -0.00314058 18.6641 0.0150518 14.3012C-0.0213329 13.3989 0.727588 12.7457 1.46741 12.3811C3.40186 11.4484 5.6092 11.4058 7.71345 11.4666C7.76499 8.83854 7.64674 6.21658 7.71647 3.59158C7.77105 2.67708 8.61396 2.09982 9.33559 1.6927C10.7879 0.954422 12.398 0.592877 14.005 0.383241ZM13.0013 1.9783C11.6945 2.273 10.2786 2.54948 9.23857 3.44878C8.93537 4.69748 9.15064 6.05252 9.12941 7.34071C9.57209 8.7869 8.91717 10.224 9.09909 11.6975C10.3877 12.0925 12.207 12.4358 12.5435 13.9822C12.6254 18.1385 12.5223 22.3038 12.592 26.4631C15.8272 27.086 19.208 27.0161 22.3765 26.0773C22.3704 25.1628 22.3765 24.2483 22.4007 23.3338C20.4572 23.8108 18.45 24.1663 16.4427 24.0143C15.8454 23.7044 16.0516 22.5773 16.7914 22.6745C18.6289 22.6472 20.4602 22.398 22.2431 21.9423C22.5614 20.8607 23.468 20.1984 24.4656 19.7943C24.4686 19.2839 24.4777 18.7765 24.4838 18.2691C22.0005 19.5847 19.1322 19.8186 16.373 19.8885C16.1395 19.4297 16.0971 18.9466 16.3063 18.4727C18.5379 18.4089 20.8271 18.3025 22.9253 17.4549C23.465 17.2179 24.1047 17.0204 24.414 16.4735C24.505 15.6806 24.4656 14.8815 24.4807 14.0855C21.9702 15.3828 19.1018 15.6289 16.3245 15.6593C16.088 15.2188 15.9303 14.3741 16.6247 14.2982C19.0594 14.1706 21.5972 14.0156 23.7955 12.8459C24.9234 12.3112 24.32 10.8468 24.4868 9.87457C21.8974 11.1263 18.923 11.6215 16.0728 11.3056C16.1789 10.9076 15.9879 10.2999 16.4821 10.1115C19.1504 9.88368 22.1794 9.92926 24.3776 8.17318C24.5504 7.31944 24.4504 6.43837 24.4716 5.57552C22.9101 6.60547 21.009 6.8789 19.1958 7.11892C18.2589 7.17969 17.2917 7.38325 16.3639 7.15842C15.9546 6.83029 16.1789 6.34115 16.2214 5.9158C19.0776 5.6697 22.4007 5.79731 24.6262 3.69183C23.9562 3.09027 23.1618 2.63758 22.2946 2.4006C19.2898 1.51952 16.0728 1.40104 13.0013 1.9783ZM3.73236 13.1042C2.89854 13.3017 1.95557 13.4718 1.38251 14.1675C0.839774 14.684 1.06415 15.4831 1.0126 16.1424C1.13085 20.0313 0.860993 23.9354 1.13994 27.8151L1.35522 27.4505C1.72514 28.3043 2.79848 28.4197 3.58378 28.6871C6.10039 29.1762 8.88078 29.1337 11.1639 27.8303C11.1912 27.4141 11.2185 26.9979 11.2458 26.5847C9.59332 27.326 7.74377 27.648 5.93969 27.5083C5.50308 27.25 5.66984 26.691 5.63649 26.2778C7.52243 26.1168 9.50539 26.0712 11.1609 25.023C11.1942 24.3789 11.2155 23.7348 11.2367 23.0938C9.54481 23.8533 7.68615 24.1237 5.84266 24.0478C5.73048 23.7622 5.62133 23.4827 5.51217 23.2001C5.63345 23.0725 5.87299 22.8112 5.99427 22.6836C7.70132 22.632 9.53267 22.5226 11.0123 21.5747C11.3822 21.0035 11.1427 20.25 11.2306 19.609C10.0148 20.1315 8.71402 20.4323 7.39811 20.5174C6.82202 20.5295 6.17013 20.6845 5.67287 20.3138C5.54552 19.9128 5.5152 19.214 6.09736 19.214C7.78924 19.0894 9.6297 19.0408 11.0639 18.0078C11.3216 17.4184 11.1761 16.7166 11.2367 16.0877C9.563 16.7713 7.72254 17.2118 5.91543 16.9748C5.45759 16.7136 5.69712 16.1181 5.71835 15.714C7.64674 15.5925 9.74492 15.553 11.3549 14.3286C10.9123 13.9245 10.4484 13.5052 9.85408 13.3563C7.88021 12.7457 5.75171 12.7335 3.73236 13.1042ZM23.8986 21.7509C23.6499 23.8989 23.8318 26.1198 23.8076 28.2952C24.4564 29.2066 25.7602 29.2978 26.776 29.5378C29.0652 29.7991 31.6394 29.7778 33.6011 28.4045C33.5981 28.1281 33.5951 27.5782 33.592 27.3017C32.0336 28.0065 30.2992 28.3104 28.5952 28.2496C27.91 28.2739 27.6826 27.0191 28.4406 26.9189C30.0506 26.77 31.7698 26.7639 33.1918 25.8859C33.8892 25.4453 33.4556 24.4518 33.5951 23.7774C31.9244 24.5946 30.0415 24.7709 28.2101 24.7678C28.0009 24.3182 27.7705 23.4067 28.5346 23.4097C30.3296 23.2396 32.3337 23.2366 33.7528 21.9393C32.0548 20.5933 29.7565 20.49 27.6856 20.5842C26.3848 20.724 24.9416 20.9063 23.8986 21.7509Z" fill="#555555"/>
</svg>
