<svg width="399" height="785" viewBox="0 0 399 785" fill="none" xmlns="http://www.w3.org/2000/svg">
<path d="M-54.6689 0C96.7179 152.31 250.357 302.404 398.679 457.705C384.39 475.317 367.922 491.01 352.229 507.367C253.274 607.836 153.506 707.456 53.0742 806.448C34.4277 824.356 16.2244 842.781 -3.49277 859.508C-78.3 788.614 -150.264 714.804 -223.336 642.138C-284.149 580.771 -345.405 519.847 -405 457.299C-356.925 403.981 -305.048 354.245 -254.869 302.958C-251.213 299.487 -247.964 295.389 -243.459 292.989C-222.117 292.139 -200.776 293.063 -179.434 292.656C-234.598 348.005 -289.872 403.206 -345.073 458.517C-245.453 557.989 -146.719 658.422 -45.7334 756.491C-31.6285 769.525 -18.2991 783.408 -3.19736 795.334C25.0492 771.851 50.7111 745.414 77.1484 719.936C164.583 633.35 251.391 546.137 338.309 459.034C280.93 397.667 220.264 339.439 161.186 279.696C89.3701 207.658 17.0737 136.063 -54.8535 64.0994C-54.7427 42.7206 -54.7427 21.3788 -54.6689 0Z" fill="#EE7E01"/>
<path d="M-54.5943 122.512C37.0131 211.83 126.811 303.032 217.274 393.495C238.321 415.058 259.847 436.141 280.229 458.295C187.661 555.183 91.7339 648.821 -2.90134 743.752C-97.9057 648.6 -193.464 554.038 -288.395 458.849C-240.911 411.181 -193.242 363.697 -145.722 316.066C-137.709 308.386 -130.768 299.302 -121.537 293.025C-102.078 292.176 -82.5455 292.324 -63.1606 294.022C-113.635 347.34 -167.137 397.778 -216.8 451.871C-220.455 454.935 -222.966 459.809 -217.87 462.911C-153.993 529.447 -88.1948 594.174 -22.3231 658.717C-15.7138 665.326 -8.77216 671.529 -1.53513 677.437C63.3027 614.519 126.294 549.681 189.581 485.176C198.591 475.908 207.932 466.862 215.502 456.338C128.141 363.402 35.9054 275.154 -53.3389 184.101C-56.8836 164.273 -53.782 142.931 -54.5943 122.512Z" fill="#EE7E01"/>
<path d="M-140.849 431.711C-95.4703 385.298 -50.7188 338.184 -3.38278 293.765C52.4826 346.307 106.945 400.474 159.007 456.856C106.945 512.869 53.3318 567.516 -1.86894 620.428C-43.1495 582.803 -82.2885 542.925 -121.723 503.343C-136.049 488.094 -151.52 473.841 -164.48 457.41C-157.502 448.068 -148.825 440.167 -140.849 431.711ZM-3.38278 363.507C-3.38278 363.507 -42.0418 401.065 -58.362 417.902C-64.6391 423.662 -70.473 429.865 -75.7531 436.548C-82.8793 443.933 -89.784 451.576 -95.8395 459.884C-65.2668 490.752 -35.8387 523.023 -3.01357 551.454C29.7007 522.543 59.7196 490.567 89.8124 458.961C70.1321 434.222 47.3502 412.179 25.0114 389.877C21.7622 386.923 -3.38278 363.507 -3.38278 363.507Z" fill="#EE7E01"/>
</svg>
