<svg width="88" height="84" viewBox="0 0 88 84" fill="none" xmlns="http://www.w3.org/2000/svg">
<path opacity="0.5" d="M87.9635 58.0706C87.9635 58.0706 87.8611 53.4733 80.4835 51.0252C73.106 48.577 56.8137 51.0252 56.8137 51.0252C50.9189 45.9757 42.9294 33.5862 42.9294 33.5862C42.9294 33.5862 45.5143 27.9084 47.5917 16.8969C50.6142 0.876879 40.9313 0.0577661 40.9313 0.0577661C40.9313 0.0577661 33.1438 -1.29151 33.0414 9.05198C32.939 19.3955 38.2674 29.389 38.2674 29.389C33.9639 43.58 24.6393 60.3694 24.6393 60.3694C5.27323 68.2641 2.60875 73.0614 1.27696 74.5604C-0.0551302 76.0596 -2.89312 85.6124 9.0951 83.7635C21.0833 81.9146 31.8117 60.0197 31.8117 60.0197C37.9596 57.0215 56.5062 53.2739 56.5062 53.2739C56.5062 53.2739 62.4492 61.7684 75.8722 63.5907C89.2956 65.4129 87.9635 58.0706 87.9635 58.0706ZM7.91098 80.947C5.0259 82.2699 2.29821 80.5188 1.91536 78.9538C1.42311 76.9418 3.43097 73.6275 7.26803 71.2199C14.9649 66.3894 22.4209 63.5904 22.4209 63.5904C22.4209 63.5904 17.1047 76.7317 7.91098 80.947ZM35.1739 5.67893C36.0186 2.68076 39.1562 1.79764 40.6241 2.5308C42.5113 3.47379 43.7887 7.11623 43.1704 11.525C41.9304 20.3696 39.265 27.7149 39.265 27.7149C39.265 27.7149 32.4814 15.2329 35.1739 5.67893ZM33.0414 56.9711C37.4473 50.1752 42.161 36.3843 42.161 36.3843C44.7225 41.1813 54.3546 52.2209 54.3546 52.2209C48.7187 52.4672 33.0414 56.9711 33.0414 56.9711ZM77.1533 61.2184C66.994 61.2169 58.865 52.9165 58.865 52.9165C58.865 52.9165 65.5233 51.9925 74.4381 52.274C78.9983 52.418 81.9384 53.7886 82.3279 55.8219C82.6308 57.4032 82.1741 61.2193 77.1533 61.2184Z" fill="#014086"/>
</svg>
