<svg width="73" height="72" viewBox="0 0 73 72" fill="none" xmlns="http://www.w3.org/2000/svg">
<path opacity="0.1" d="M72.9697 49.7748C72.9697 49.7748 72.8848 45.8343 66.7647 43.7359C60.6447 41.6374 47.1295 43.7359 47.1295 43.7359C42.2396 39.4077 35.6119 28.7881 35.6119 28.7881C35.6119 28.7881 37.7562 23.9215 39.4795 14.4831C41.9868 0.751611 33.9544 0.0495138 33.9544 0.0495138C33.9544 0.0495138 27.4943 -1.10701 27.4094 7.75884C27.3244 16.6247 31.7446 25.1905 31.7446 25.1905C28.1746 37.3543 20.4394 51.7452 20.4394 51.7452C4.37439 58.5121 2.16408 62.6241 1.0593 63.9089C-0.045733 65.1939 -2.39997 73.3821 7.5448 71.7973C17.4896 70.2125 26.3893 51.4454 26.3893 51.4454C31.4892 48.8756 46.8744 45.6633 46.8744 45.6633C46.8744 45.6633 51.8045 52.9444 62.9395 54.5063C74.0747 56.0682 72.9697 49.7748 72.9697 49.7748ZM6.56252 69.3831C4.16921 70.5171 1.90647 69.0161 1.58887 67.6746C1.18054 65.9501 2.84615 63.1093 6.02916 61.0456C12.4141 56.9052 18.5991 54.506 18.5991 54.506C18.5991 54.506 14.1891 65.7701 6.56252 69.3831ZM29.1783 4.86765C29.8791 2.29779 32.4818 1.54083 33.6995 2.16926C35.2651 2.97753 36.3247 6.09962 35.8118 9.87859C34.7831 17.4596 32.5721 23.7556 32.5721 23.7556C32.5721 23.7556 26.9448 13.0568 29.1783 4.86765ZM27.4094 48.8324C31.0642 43.0073 34.9744 31.1865 34.9744 31.1865C37.0993 35.2983 45.0896 44.7608 45.0896 44.7608C40.4144 44.9719 27.4094 48.8324 27.4094 48.8324ZM64.0022 52.4729C55.5745 52.4716 48.8312 45.357 48.8312 45.357C48.8312 45.357 54.3546 44.565 61.7498 44.8063C65.5327 44.9297 67.9716 46.1045 68.2947 47.8473C68.546 49.2027 68.1672 52.4737 64.0022 52.4729Z" fill="#014086"/>
</svg>
