<svg width="515" height="497" viewBox="0 0 515 497" fill="none" xmlns="http://www.w3.org/2000/svg">
<g opacity="0.1">
<path d="M350.331 0C501.718 152.31 655.357 302.404 803.679 457.705C789.39 475.317 772.922 491.01 757.229 507.367C658.274 607.836 558.506 707.456 458.074 806.448C439.428 824.356 421.224 842.781 401.507 859.508C326.7 788.614 254.736 714.804 181.664 642.138C120.851 580.771 59.5947 519.847 0 457.299C48.0745 403.981 99.9522 354.245 150.131 302.958C153.787 299.487 157.036 295.389 161.541 292.989C182.883 292.139 204.224 293.063 225.566 292.656C170.402 348.005 115.128 403.206 59.927 458.517C159.547 557.989 258.281 658.422 359.267 756.491C373.371 769.525 386.701 783.408 401.803 795.334C430.049 771.851 455.711 745.414 482.148 719.936C569.583 633.35 656.391 546.137 743.309 459.034C685.93 397.667 625.264 339.439 566.186 279.696C494.37 207.658 422.074 136.063 350.146 64.0994C350.257 42.7206 350.257 21.3788 350.331 0Z" fill="#EE7E01"/>
<path d="M350.406 122.512C442.013 211.83 531.811 303.032 622.274 393.495C643.321 415.058 664.847 436.141 685.229 458.295C592.661 555.183 496.734 648.821 402.099 743.752C307.094 648.6 211.536 554.038 116.605 458.849C164.089 411.181 211.758 363.697 259.278 316.066C267.291 308.386 274.232 299.302 283.463 293.025C302.922 292.176 322.454 292.324 341.839 294.022C291.365 347.34 237.863 397.778 188.2 451.871C184.545 454.935 182.034 459.809 187.13 462.911C251.007 529.447 316.805 594.174 382.677 658.717C389.286 665.326 396.228 671.529 403.465 677.437C468.303 614.519 531.294 549.681 594.581 485.176C603.591 475.908 612.932 466.862 620.502 456.338C533.141 363.402 440.905 275.154 351.661 184.101C348.116 164.273 351.218 142.931 350.406 122.512Z" fill="#EE7E01"/>
<path d="M264.151 431.711C309.53 385.298 354.281 338.184 401.617 293.765C457.483 346.307 511.945 400.474 564.007 456.856C511.945 512.869 458.332 567.516 403.131 620.428C361.85 582.803 322.711 542.925 283.277 503.343C268.951 488.094 253.48 473.841 240.52 457.41C247.498 448.068 256.175 440.167 264.151 431.711ZM401.617 363.507C401.617 363.507 362.958 401.065 346.638 417.902C340.361 423.662 334.527 429.865 329.247 436.548C322.121 443.933 315.216 451.576 309.16 459.884C339.733 490.752 369.161 523.023 401.986 551.454C434.701 522.543 464.72 490.567 494.812 458.961C475.132 434.222 452.35 412.179 430.011 389.877C426.762 386.923 401.617 363.507 401.617 363.507Z" fill="#EE7E01"/>
</g>
</svg>
